<svg width="1200" height="630" viewBox="0 0 1200 630" fill="none" xmlns="http://www.w3.org/2000/svg">
  <rect width="1200" height="630" fill="#0E0E0E"/>
  <circle cx="940" cy="160" r="360" fill="#242424"/>
  <path d="M770 150C728 168 704 200 690 252C674 312 676 390 662 462C654 504 646 546 636 594H838C850 528 858 472 862 420H940C944 472 952 528 964 594H1166C1156 546 1148 504 1140 462C1126 390 1128 312 1112 252C1098 200 1074 168 1032 150C1014 184 970 204 902 204C834 204 790 184 770 150Z" fill="#1B1B1A"/>
  <path d="M812 158C834 186 866 200 902 200C938 200 970 186 992 158C972 148 944 142 902 142C860 142 832 148 812 158Z" fill="#B79A72"/>
  <text x="76" y="208" fill="#FFF9EF" font-family="Inter, Arial, sans-serif" font-size="92" font-weight="700">VANTIA</text>
  <text x="82" y="276" fill="#B79A72" font-family="Inter, Arial, sans-serif" font-size="24" font-weight="700">POLERONES SLIM FIT</text>
  <text x="82" y="346" fill="#FFF9EF" font-family="Inter, Arial, sans-serif" font-size="34" font-weight="500">Tonos neutros. Interior chiporro.</text>
  <text x="82" y="398" fill="#FFF9EF" font-family="Inter, Arial, sans-serif" font-size="34" font-weight="500">Calce limpio para todos los dias.</text>
  <text x="82" y="500" fill="#FFF9EF" font-family="Inter, Arial, sans-serif" font-size="28" font-weight="700">1 x $15.000 · 2 x $25.000</text>
</svg>
